<svg width="24" height="24" viewBox="0 0 24 24" xmlns="http://www.w3.org/2000/svg" id="human-with-helmet">
<path d="m 16,7 a 4,4 0 0 1 -2,3.464102 4,4 0 0 1 -4.0000001,0 A 4,4 0 0 1 8,7 h 4 z" />
<path d="m 12,12 a 9,9 0 0 0 -9,9 v 2 h 18 v -2 a 9,9 0 0 0 -9,-9 z" />
<path d="M 12 1 A 5 5 0 0 0 8.0214844 3 L 11.146484 3 A 1 1 0 0 1 12 2.5 A 1 1 0 0 1 12.865234 3 L 15.986328 3 A 5 5 0 0 0 12 1 z M 7.4375 4 A 5 5 0 0 0 7.1113281 5 L 7 5 L 6 5 L 6 6 L 7 6 L 17 6 L 18 6 L 18 5 L 17 5 L 16.896484 5 A 5 5 0 0 0 16.572266 4 L 12.853516 4 A 1 1 0 0 1 12 4.5 A 1 1 0 0 1 11.146484 4 L 7.4375 4 z " />
</svg>
