<svg width="24" height="24" viewBox="0 0 24 24" xmlns="http://www.w3.org/2000/svg">
<path d="M 3 2 L 3 3 L 3 18 L 9 22 L 15 18 L 21 22 L 21 21 L 21 7 L 21 6 L 15 2 L 9 6 L 3 2 z M 14.5 3.3339844 L 14.5 17.333984 L 9.5 20.666016 L 9.5 6.6660156 L 14.5 3.3339844 z M 15.5 3.3339844 L 20 6.3339844 L 20 20.333984 L 15.5 17.333984 L 15.5 3.3339844 z M 4 3.6660156 L 8.5 6.6660156 L 8.5 20.666016 L 4 17.666016 L 4 3.6660156 z " />
<path d="m 16.703918,9 c -0.676865,0 -1.353109,0.2303804 -1.903829,0.6925156 -1.10144,0.9242684 -1.38053,2.5066644 -0.661616,3.7519294 l 2.565445,4.444444 2.565444,-4.444445 C 19.988277,12.19918 19.709188,10.616784 18.607748,9.6925156 18.057028,9.2303804 17.380784,9 16.703918,9 Z m 0,1.975308 a 0.98759987,0.98765434 0 0 1 0.9876,0.987656 0.98759987,0.98765434 0 0 1 -0.9876,0.987655 0.98759987,0.98765434 0 0 1 -0.9876,-0.987655 0.98759987,0.98765434 0 0 1 0.9876,-0.987656 z" />
</svg>
