<svg width="24" height="24" viewBox="0 0 24 24" xmlns="http://www.w3.org/2000/svg" id="cycle">
<path d="M 6 14 A 4 4 0 0 0 2 18 A 4 4 0 0 0 6 22 A 4 4 0 0 0 10 18 A 4 4 0 0 0 6 14 z M 6 15 A 3 3 0 0 1 9 18 A 3 3 0 0 1 6 21 A 3 3 0 0 1 3 18 A 3 3 0 0 1 6 15 z " />
<path d="m 18,14 a 4,4 0 0 0 -4,4 4,4 0 0 0 4,4 4,4 0 0 0 4,-4 4,4 0 0 0 -4,-4 z m 0,1 a 3,3 0 0 1 3,3 3,3 0 0 1 -3,3 3,3 0 0 1 -3,-3 3,3 0 0 1 3,-3 z" />
<path d="m 12,7 a 1,1 0 0 0 -0.366025,1.3660254 l 2.5,4.3301276 A 1,1 0 0 0 15.5,13.062178 1,1 0 0 0 15.866025,11.696153 l -2.5,-4.3301276 A 1,1 0 0 0 12,7 Z" />
<path d="m 15,11 a 1,1 0 0 0 -1.366025,0.366025 l -2.500001,4.330128 A 1,1 0 0 0 11.5,17.062178 1,1 0 0 0 12.866025,16.696153 l 2.5,-4.330128 A 1,1 0 0 0 15,11 Z" />
<path d="m 13,8 a 1,1 0 0 0 -1.414214,0 l -3.535534,3.535534 a 1,1 0 0 0 0,1.414213 1,1 0 0 0 1.414214,0 L 13,9.4142135 A 1,1 0 0 0 13,8 Z" />
<path d="m 11,16 a 1,1 0 0 0 0.366025,1.366025 l 4.330128,2.500001 A 1,1 0 0 0 17.062178,19.5 1,1 0 0 0 16.696153,18.133975 l -4.330128,-2.5 A 1,1 0 0 0 11,16 Z" />
<path transform="rotate(14.720431)" d="m 10.31127,7.6347089 h 1 v 8.0000001 h -1 z" />
<path d="m 13,5 a 2,2 0 0 1 -1,1.7320508 2,2 0 0 1 -2.0000001,0 A 2,2 0 0 1 9,5 h 2 z" />
<path d="m 8,4.5 a 3,3 0 0 1 3,-3 3,3 0 0 1 3,3 z" />
</svg>
