<svg width="435" height="447" viewBox="0 0 435 447" fill="none" xmlns="http://www.w3.org/2000/svg">
<path d="m 83.1161,425.795 c 0,7.13 6.6289,11.205 13.2578,11.205 6.6291,0 12.7481,-3.565 12.7481,-11.205 0,0 -1.02,-141.083 -1.53,-206.276 16.827,10.186 38.244,25.975 50.482,42.783 2.549,3.565 6.119,5.093 9.178,5.093 6.629,0 12.748,-6.621 12.748,-14.261 0,-19.864 -64.249,-53.479 -67.309,-55.007 12.238,-15.789 49.462,-64.684 49.462,-92.188 0,-15.2793 -10.708,-24.4472 -31.105,-24.9565 -7.139,0 -14.277,-0.5093 -21.926,-0.5093 V 12.7331 C 109.122,4.07457 102.493,0 95.864,0 89.2351,0 82.6062,4.07457 82.6062,12.7331 l 0.5099,68.2494 c -17.3371,0 -35.1841,0.5093 -53.0311,1.0186 -7.1388,0 -11.2181,6.1119 -11.2181,11.7145 0,6.1119 4.0793,11.7144 11.2181,11.7144 h 0.5099 c 29.0652,-1.019 67.3088,-2.037 94.3341,-2.037 6.119,0 9.689,2.546 9.689,8.658 0,13.243 -37.7341,94.225 -127.47919,148.214 C 2.03966,263.32 0,267.395 0,271.47 c 0,7.13 5.60906,13.751 13.2578,13.751 9.6884,0 42.8328,-25.466 71.3881,-54.497 z" fill="#28478a" />
<circle cx="307.5" cy="319.5" r="112.5" stroke="#28478a" stroke-width="30"/>
<line x1="189" y1="319" x2="426" y2="319" stroke="#28478a" stroke-width="10"/>
<line x1="307" y1="429" x2="307" y2="205" stroke="#28478a" stroke-width="10"/>
<rect x="231.5" y="88.5" width="152" height="67" rx="27.5" stroke="#28478a" stroke-width="25"/>
<line x1="215" y1="34" x2="400" y2="34" stroke="#28478a" stroke-width="26" stroke-linecap="round"/>
</svg>
