<svg width="924" height="447" viewBox="0 0 924 447" fill="none" xmlns="http://www.w3.org/2000/svg">
<path d="M533.123 205C564.323 202.2 605.123 198.6 615.923 198.6C624.323 198.6 628.723 202.2 628.723 208.6C628.723 227.4 551.923 371.4 427.523 414.2C419.523 417 416.323 422.2 416.323 427C416.323 432.2 420.723 437.4 428.323 437.4C430.723 437.4 433.923 436.6 437.123 435.4C545.123 392.6 610.723 304.2 652.323 219C654.723 214.2 655.923 209.4 655.923 205C655.923 190.6 643.523 179.4 622.323 179.4C617.523 179.4 573.123 181.8 548.723 183.8C562.323 164.6 564.323 160.2 564.323 155.8C564.323 149 558.323 145 551.923 145C547.923 145 543.923 146.6 541.923 150.6C519.123 191.4 468.323 257.8 427.923 285C422.723 288.6 420.323 292.6 420.323 296.6C420.323 302.2 425.123 306.6 431.523 306.6C450.323 306.6 513.923 231 533.123 205Z" fill="#28478A"/>
<path d="M783.477 204.2C783.477 195.8 778.277 191.8 772.677 191.8C767.077 191.8 761.077 196.2 761.077 205C761.077 229 757.877 326.6 755.077 363.8V367C755.077 383.4 765.877 392.6 779.877 392.6C804.677 392.6 876.277 343.4 921.877 261.8C923.477 259.4 923.877 257 923.877 254.6C923.877 247.8 918.277 243 912.677 243C908.677 243 904.277 245 901.477 250.6C859.077 329.4 798.677 366.6 786.277 366.6C781.477 366.6 777.877 363.8 777.877 356.2V355.4L783.477 204.6V204.2ZM597.077 411.4C609.877 411.4 716.277 357.8 716.277 217.4C716.277 209.8 716.277 199 703.877 199C698.277 199 693.077 203 693.077 211.8V221.4C693.077 299 657.477 359.8 593.477 388.6C587.477 391.4 584.677 395.8 584.677 400.2C584.677 406.2 589.477 411.4 597.077 411.4Z" fill="#28478A"/>
<path d="M83.1161 425.795C83.1161 432.925 89.745 437 96.3739 437C103.003 437 109.122 433.435 109.122 425.795C109.122 425.795 108.102 284.712 107.592 219.519C124.419 229.705 145.836 245.494 158.074 262.302C160.623 265.867 164.193 267.395 167.252 267.395C173.881 267.395 180 260.774 180 253.134C180 233.27 115.751 199.655 112.691 198.127C124.929 182.338 162.153 133.443 162.153 105.939C162.153 90.6597 151.445 81.4918 131.048 80.9825C123.909 80.9825 116.771 80.4732 109.122 80.4732V12.7331C109.122 4.07457 102.493 0 95.864 0C89.2351 0 82.6062 4.07457 82.6062 12.7331L83.1161 80.9825C65.779 80.9825 47.932 81.4918 30.085 82.0011C22.9462 82.0011 18.8669 88.113 18.8669 93.7156C18.8669 99.8275 22.9462 105.43 30.085 105.43H30.5949C59.6601 104.411 97.9037 103.393 124.929 103.393C131.048 103.393 134.618 105.939 134.618 112.051C134.618 125.294 96.8839 206.276 7.13881 260.265C2.03966 263.32 0 267.395 0 271.47C0 278.6 5.60906 285.221 13.2578 285.221C22.9462 285.221 56.0906 259.755 84.6459 230.724L83.1161 425.795Z" fill="#28478A"/>
<circle cx="307.5" cy="319.5" r="112.5" stroke="#28478A" stroke-width="30"/>
<line x1="189" y1="319" x2="426" y2="319" stroke="#28478A" stroke-width="10"/>
<line x1="307" y1="429" x2="307" y2="205" stroke="#28478A" stroke-width="10"/>
<rect x="231.5" y="88.5" width="152" height="67" rx="27.5" stroke="#28478A" stroke-width="25"/>
<line x1="215" y1="34" x2="400" y2="34" stroke="#28478A" stroke-width="26" stroke-linecap="round"/>
<line x1="541.5" y1="151.5" x2="589.5" y2="151.5" stroke="#28478A" stroke-width="15" stroke-linecap="round"/>
</svg>
